<svg width="24" height="24" viewBox="0 0 24 24" fill="none" xmlns="http://www.w3.org/2000/svg">
<path d="M0 2.4C0 1.76348 0.31607 1.15303 0.87868 0.702944C1.44129 0.252856 2.20435 0 3 0H15C15.3978 6.79649e-05 15.7793 0.126541 16.0605 0.3516L23.5605 6.3516C23.8418 6.57659 23.9999 6.88177 24 7.2V21.6C24 22.2365 23.6839 22.847 23.1213 23.2971C22.5587 23.7471 21.7957 24 21 24H3C2.20435 24 1.44129 23.7471 0.87868 23.2971C0.31607 22.847 0 22.2365 0 21.6V2.4ZM20.379 7.2L15 2.8968V7.2H20.379ZM12 2.4H3V21.6H21V9.6H13.5C13.1022 9.6 12.7206 9.47357 12.4393 9.24853C12.158 9.02348 12 8.71826 12 8.4V2.4ZM6 13.2C6 12.8817 6.15804 12.5765 6.43934 12.3515C6.72064 12.1264 7.10218 12 7.5 12H16.5C16.8978 12 17.2794 12.1264 17.5607 12.3515C17.842 12.5765 18 12.8817 18 13.2C18 13.5183 17.842 13.8235 17.5607 14.0485C17.2794 14.2736 5.85237 14.4 5.45455 14.4H7.5C7.10218 14.4 6.72064 14.2736 6.43934 14.0485C6.15804 13.8235 6 13.5183 6 13.2ZM6 18C6 17.6817 6.15804 17.3765 6.43934 17.1515C6.72064 16.9264 7.10218 16.8 7.5 16.8H16.5C16.8978 16.8 17.2794 16.9264 17.5607 17.1515C17.842 17.3765 18 17.6817 18 18C18 18.3183 17.842 18.6235 17.5607 18.8485C17.2794 19.0736 16.8978 19.2 16.5 19.2H7.5C7.10218 19.2 6.72064 19.0736 6.43934 18.8485C6.15804 18.6235 6 18.3183 6 18Z" fill="#0D0D0D" fill-opacity="0.7"/>
</svg>
