<svg width="25" height="25" viewBox="0 0 25 25" fill="none" xmlns="http://www.w3.org/2000/svg">
<path fill-rule="evenodd" clip-rule="evenodd" d="M21.7164 1.95692C20.496 0.736531 18.5174 0.736527 17.297 1.95692L2.5495 16.7044C2.11325 17.1407 1.81588 17.6963 1.69489 18.3012L1.08336 21.3589C0.791813 22.8166 2.07706 24.1019 3.53481 23.8104L6.59246 23.1988C7.19743 23.0779 7.75305 22.7805 8.1893 22.3442L22.9367 7.59672C24.1572 6.37633 24.1572 4.3977 22.9367 3.1773L21.7164 1.95692ZM18.7701 3.43005C19.177 3.02326 19.8364 3.02326 20.2433 3.43005L21.4636 4.65045C21.8705 5.05724 21.8705 5.71678 21.4636 6.12358L18.6807 8.90649L15.9873 6.21296L18.7701 3.43005ZM14.514 7.6861L4.02263 18.1776C3.87722 18.323 3.7781 18.5082 3.73777 18.7099L3.12624 21.7675L6.18388 21.1559C6.38554 21.1156 6.57075 21.0165 6.71617 20.8711L17.2076 10.3796L14.514 7.6861Z" fill="#0F0F0F"/>
</svg>
